<svg width="38" height="19" viewBox="0 0 38 19" fill="none" xmlns="http://www.w3.org/2000/svg">
<path d="M0 1.58333C0 0.708883 0.708882 0 1.58333 0H36.4167C37.2911 0 38 0.708883 38 1.58333C38 2.45778 37.2911 3.16667 36.4167 3.16667H1.58333C0.708881 3.16667 0 2.45778 0 1.58333Z" fill="#676988"/>
<path d="M0 9.49999C0 8.62554 0.708882 7.91666 1.58333 7.91666H36.4167C37.2911 7.91666 38 8.62554 38 9.49999C38 10.3744 37.2911 11.0833 36.4167 11.0833H1.58333C0.708881 11.0833 0 10.3744 0 9.49999Z" fill="#676988"/>
<path d="M0 17.4167C0 16.5422 0.708882 15.8333 1.58333 15.8333H36.4167C37.2911 15.8333 38 16.5422 38 17.4167C38 18.2911 37.2911 19 36.4167 19H1.58333C0.708881 19 0 18.2911 0 17.4167Z" fill="#676988"/>
</svg>
