<svg width="95" height="91" viewBox="0 0 95 91" fill="none" xmlns="http://www.w3.org/2000/svg">
<g clip-path="url(#clip0_201:41)">
<path d="M93.3974 81.2977H1.55655L13.2777 61.5033L17.1855 54.9026H77.7684L93.3974 81.2977Z" fill="#4EBFED"/>
<path d="M47.4768 70.7571C47.4768 70.7571 27.2581 71.2389 13.2776 61.5035L17.1854 54.9028H47.395L47.4768 70.7571Z" fill="#42B7DB"/>
<path d="M73.0105 29.8289C67.404 2.98656 27.5507 2.98656 21.9443 29.8289C21.472 32.09 21.2242 34.4288 21.2242 36.8231C21.2242 52.8199 32.2837 66.3407 47.4774 70.7572C62.6713 66.3407 73.7306 52.8199 73.7306 36.8231C73.7306 34.4288 73.4827 32.0899 73.0105 29.8289Z" fill="#FF6F52"/>
<path d="M47.4763 47.0551C55.1036 47.0551 61.2867 41.1323 61.2867 33.8261C61.2867 26.52 55.1036 20.5972 47.4763 20.5972C39.849 20.5972 33.6658 26.52 33.6658 33.8261C33.6658 41.1323 39.849 47.0551 47.4763 47.0551Z" fill="#CFDCE5"/>
<path d="M38.0085 33.8255C38.0085 27.2271 43.0521 21.7578 49.6477 20.7604C48.9404 20.6534 48.2157 20.5974 47.4772 20.5974C39.8503 20.5974 33.6675 26.5199 33.6675 33.8256C33.6675 41.1314 39.8503 47.0539 47.4772 47.0539C48.2157 47.0539 48.9406 46.9977 49.6477 46.8909C43.0523 45.8931 38.0085 40.4239 38.0085 33.8255Z" fill="#BAC6CC"/>
<path d="M47.0419 72.2048C47.1914 72.2482 47.346 72.27 47.5006 72.27C47.6551 72.27 47.8097 72.2482 47.9592 72.2048C55.7151 69.9502 62.6857 65.276 67.5866 59.0429C72.6546 52.5973 75.3331 44.9139 75.3331 36.823C75.3331 34.3698 75.0806 31.9169 74.5828 29.532C73.8367 25.9612 72.4833 22.7063 70.5598 19.8581C70.0861 19.1562 69.1079 18.9558 68.3757 19.4093C67.643 19.8633 67.4333 20.8001 67.9072 21.5018C69.6137 24.0285 70.8171 26.9302 71.4845 30.1255C71.9421 32.3152 72.1736 34.5683 72.1736 36.8227C72.1736 44.2514 69.7146 51.3054 65.0626 57.222C60.6584 62.8233 54.4359 67.0535 47.5002 69.1719C40.5644 67.0535 34.3418 62.8231 29.9378 57.222C25.2856 51.3054 22.8265 44.2514 22.8265 36.8227C22.8265 34.5685 23.0585 32.3153 23.5158 30.1253C25.3439 21.3742 31.2854 14.8871 39.8176 12.3275C48.5335 9.71304 58.2426 11.7817 64.5523 17.5991C65.181 18.1787 66.1812 18.1602 66.7857 17.5582C67.3908 16.9562 67.3717 15.9983 66.7432 15.4187C59.614 8.84569 48.6745 6.49942 38.8734 9.4395C29.206 12.3398 22.4794 19.6631 20.4181 29.5317C19.9198 31.9165 19.6672 34.3696 19.6672 36.8229C19.6672 44.9137 22.3462 52.5973 27.4142 59.0427C32.3154 65.276 39.286 69.9504 47.0419 72.2048Z" fill="black"/>
<path d="M47.5008 45.5407C45.0128 45.5407 42.619 44.8297 40.5778 43.4848C39.8592 43.0111 38.8756 43.1853 38.3809 43.8739C37.8865 44.5624 38.0681 45.5044 38.7871 45.9782C41.3573 47.6722 44.3702 48.5673 47.5008 48.5673C55.9866 48.5673 62.89 41.9545 62.89 33.826C62.89 25.6975 55.9866 19.0847 47.5008 19.0847C39.0149 19.0847 32.1115 25.6975 32.1115 33.826C32.1115 36.78 33.0205 39.6303 34.7405 42.069C35.2287 42.7616 36.2112 42.9434 36.9337 42.476C37.6567 42.0082 37.8467 41.0676 37.3586 40.3752C35.9929 38.4386 35.271 36.1741 35.271 33.8262C35.271 27.3664 40.7572 22.1112 47.5009 22.1112C54.2446 22.1112 59.7309 27.3664 59.7309 33.8262C59.7309 40.2859 54.2441 45.5407 47.5008 45.5407Z" fill="black"/>
<path d="M94.7942 80.5511L79.1654 54.1561C78.8849 53.6823 78.3602 53.3894 77.7915 53.3894H74.1C73.2274 53.3894 72.5203 54.0669 72.5203 54.9026C72.5203 55.7383 73.2274 56.4159 74.1 56.4159H76.8715L90.7083 79.7846H4.29188L18.1289 56.4159H20.9002C21.7726 56.4159 22.4799 55.7383 22.4799 54.9026C22.4799 54.0669 21.7726 53.3894 20.9002 53.3894H17.2087C16.64 53.3894 16.1151 53.6821 15.8346 54.1561L0.205586 80.5511C-0.0718067 81.0196 -0.0682813 81.5937 0.214678 82.0592C0.497822 82.5247 1.01754 82.8107 1.57975 82.8107H93.4204C93.9826 82.8107 94.5025 82.5245 94.7853 82.0592C95.0683 81.5939 95.0718 81.0196 94.7942 80.5511Z" fill="black"/>
</g>
<defs>
<clipPath id="clip0_201:41">
<rect width="95" height="91" fill="white"/>
</clipPath>
</defs>
</svg>
