<svg width="95" height="91" viewBox="0 0 95 91" fill="none" xmlns="http://www.w3.org/2000/svg">
<path d="M47.4999 2.10559C22.4866 2.10559 2.20947 21.4292 2.20947 45.2669C2.20947 56.0145 6.33284 65.8438 13.1526 73.399C11.1043 79.0099 7.31765 83.8451 2.40626 87.3184C5.52655 88.3344 8.86896 88.8942 12.3507 88.8942C18.3055 88.8942 23.8638 87.2797 28.5728 84.4872C34.3324 87.0158 40.7429 88.4285 47.4999 88.4285C72.5132 88.4285 92.7903 69.1043 92.7903 45.2669C92.7906 21.4292 72.5132 2.10559 47.4999 2.10559Z" fill="#005CB9"/>
<path d="M40.7019 69.4957H51.3401C51.3401 69.4957 51.3401 55.501 51.3401 44.1499H59.2363L60.2055 34.0109H51.7508V29.957C51.7508 27.9815 53.1324 27.5227 54.1028 27.5227C55.074 27.5227 60.0706 27.5227 60.0706 27.5227V18.8358L51.8527 18.8041C42.7313 18.8041 40.6577 25.2822 40.6577 29.4298V34.0109H35.3828V44.1499H40.7019C40.7019 55.6378 40.7019 69.4957 40.7019 69.4957Z" fill="white"/>
<path d="M60.2055 31.905H53.9602V29.9567C53.9602 29.7972 53.977 29.695 53.9914 29.6361C54.0206 29.6313 54.0583 29.6279 54.1028 29.6279H60.0706C61.291 29.6279 62.28 28.6855 62.28 27.5224V18.8357C62.28 17.6763 61.2963 16.7349 60.0794 16.7302L51.8527 16.6984C41.9589 16.6984 38.4483 23.5566 38.4483 29.4297V31.9053H35.3828C34.1623 31.9053 33.1734 32.8477 33.1734 34.0108V44.1498C33.1734 45.3129 34.1623 46.2553 35.3828 46.2553H38.4925V69.4956C38.4925 70.6587 39.4814 71.6011 40.7019 71.6011H51.3401C52.5606 71.6011 53.5495 70.6587 53.5495 69.4956V46.2553H59.2363C60.379 46.2553 61.3329 45.4252 61.4366 44.341L62.4058 34.202C62.462 33.6128 62.2558 33.028 61.8372 32.5914C61.4186 32.154 60.8265 31.905 60.2055 31.905ZM57.2189 42.0442H51.3401C50.1196 42.0442 49.1307 42.9867 49.1307 44.1498V67.39H42.9113V44.1498C42.9113 42.9867 41.9224 42.0442 40.7019 42.0442H37.5922V36.1164H40.6577C41.8782 36.1164 42.8671 35.174 42.8671 34.0108V29.4297C42.8671 26.868 43.7427 20.9095 51.8439 20.9095L57.8611 20.9328V25.4171H54.1028C51.9057 25.4171 49.5414 26.8379 49.5414 29.957V34.0108C49.5414 35.174 50.5303 36.1164 51.7508 36.1164H57.7857L57.2189 42.0442ZM47.4999 0C21.3082 0 0 20.3065 0 45.2668C0 55.6756 3.76721 65.762 10.6347 73.8117C8.67565 78.5158 5.39452 82.5834 1.08969 85.6278C0.430689 86.0938 0.0969198 86.8697 0.223593 87.6426C0.349972 88.4158 0.915583 89.0581 1.69212 89.3108C5.13381 90.4315 8.71984 91 12.3509 91C18.1166 91 23.751 89.5702 28.721 86.8554C34.6593 89.2968 40.9712 90.5343 47.5001 90.5343C73.6918 90.5343 95 70.2275 95 45.2671C95 20.3068 73.6915 0 47.4999 0ZM47.4999 86.3229C41.2192 86.3229 35.1622 85.0618 29.4975 82.5747C28.8223 82.278 28.0366 82.3248 27.4053 82.6991C22.8943 85.3743 17.6883 86.7883 12.3507 86.7883C10.5675 86.7883 8.79643 86.63 7.05364 86.3156C10.7422 82.913 13.5387 78.7496 15.2397 74.0902C15.4983 73.3813 15.3416 72.5944 14.8279 72.0256C8.11534 64.5899 4.41884 55.0869 4.41884 45.2668C4.41884 22.6288 23.7451 4.2111 47.4999 4.2111C71.2546 4.2111 90.5809 22.6288 90.5809 45.2668C90.5812 67.9055 71.2549 86.3229 47.4999 86.3229Z" fill="#071C2C"/>
</svg>
