<svg width="95" height="91" viewBox="0 0 95 91" fill="none" xmlns="http://www.w3.org/2000/svg">
<path d="M94.1939 9.67933V72.3631C94.1939 77.7011 89.6617 82.0425 84.0891 82.0425H26.1349C24.584 87.2084 19.6094 91 13.7235 91C6.6 91 0.80611 85.4501 0.80611 78.6286V19.1677C0.80611 14.7949 4.2693 11.1817 8.70726 10.7096V9.67933C8.70726 4.34133 13.2394 0 18.8121 0H84.0891C89.6617 0 94.1939 4.34133 94.1939 9.67933ZM92.2224 72.3631V9.67933C92.2224 5.38417 88.5753 1.88845 84.0891 1.88845H18.8121C14.3259 1.88845 10.6787 5.38417 10.6787 9.67933V72.3631C10.6787 76.6604 14.3259 80.154 18.8121 80.154H24.5512C24.6278 79.6567 24.6673 79.1469 24.6673 78.6286V78.1816H20.0869C16.4792 78.1816 13.5439 75.37 13.5439 71.9141V10.1284C13.5439 6.67251 16.4792 3.86082 20.0869 3.86082H31.2213C34.829 3.86082 37.7643 6.67251 37.7643 10.1284V71.9141C37.7643 75.37 34.829 78.1816 31.2213 78.1816H26.6387V78.6286C26.6387 79.1448 26.6015 79.6546 26.538 80.154H84.0891C88.5753 80.154 92.2224 76.6604 92.2224 72.3631ZM35.7929 71.9141V10.1284C35.7929 7.71325 33.7425 5.74927 31.2213 5.74927H20.0869C17.5657 5.74927 15.5153 7.71325 15.5153 10.1284V71.9141C15.5153 74.3292 17.5657 76.2932 20.0869 76.2932H31.2213C33.7425 76.2932 35.7929 74.3292 35.7929 71.9141ZM24.0693 82.0425H18.8121C13.2394 82.0425 8.70726 77.7011 8.70726 72.3631V12.6127C5.35798 13.0722 2.77756 15.8357 2.77756 19.1677V78.6286C2.77756 84.4093 7.68649 89.1115 13.7235 89.1115C18.5098 89.1115 22.5863 86.153 24.0693 82.0425Z" fill="black"/>
<path d="M92.2224 9.67932V72.3631C92.2224 76.6604 88.5752 80.154 84.0891 80.154H26.538C26.6015 79.6546 26.6387 79.1447 26.6387 78.6286V78.1816H31.2213C34.829 78.1816 37.7643 75.3699 37.7643 71.9141V10.1283C37.7643 6.67249 34.829 3.8608 31.2213 3.8608H20.0869C16.4792 3.8608 13.5439 6.67249 13.5439 10.1283V71.9141C13.5439 75.3699 16.4792 78.1816 20.0869 78.1816H24.6673V78.6286C24.6673 79.1468 24.6278 79.6567 24.5512 80.154H18.8121C14.3259 80.154 10.6787 76.6604 10.6787 72.3631V9.67932C10.6787 5.38415 14.3259 1.88843 18.8121 1.88843H84.0891C88.5752 1.88843 92.2224 5.38415 92.2224 9.67932ZM89.6793 36.3819V10.1283C89.6793 6.67249 86.7462 3.8608 83.1362 3.8608H56.4581C52.8503 3.8608 49.915 6.67249 49.915 10.1283V36.3819C49.915 39.8378 52.8503 42.6495 56.4581 42.6495H83.1362C86.7462 42.6495 89.6793 39.8378 89.6793 36.3819ZM89.6486 71.3266V68.1666C89.6486 66.9433 88.6081 65.9466 87.3288 65.9466H80.052C78.7727 65.9466 77.7322 66.9433 77.7322 68.1666V71.3266C77.7322 72.552 78.7727 73.5486 80.052 73.5486H87.3288C88.6081 73.5486 89.6486 72.552 89.6486 71.3266ZM89.6486 61.1353V57.9753C89.6486 56.7499 88.6081 55.7532 87.3288 55.7532H80.052C78.7727 55.7532 77.7322 56.7499 77.7322 57.9753V61.1353C77.7322 62.3586 78.7727 63.3552 80.052 63.3552H87.3288C88.6081 63.3552 89.6486 62.3586 89.6486 61.1353ZM89.6486 50.7866V47.6266C89.6486 46.4012 88.6081 45.4045 87.3288 45.4045H80.052C78.7727 45.4045 77.7322 46.4012 77.7322 47.6266V50.7866C77.7322 52.012 78.7727 53.0087 80.052 53.0087H87.3288C88.6081 53.0087 89.6486 52.012 89.6486 50.7866ZM75.7564 71.3266V68.1666C75.7564 66.9433 74.7159 65.9466 73.4367 65.9466H66.1598C64.8806 65.9466 63.8401 66.9433 63.8401 68.1666V71.3266C63.8401 72.552 64.8806 73.5486 66.1598 73.5486H73.4367C74.7159 73.5486 75.7564 72.552 75.7564 71.3266ZM75.7564 61.1353V57.9753C75.7564 56.7499 74.7159 55.7532 73.4367 55.7532H66.1598C64.8806 55.7532 63.8401 56.7499 63.8401 57.9753V61.1353C63.8401 62.3586 64.8806 63.3552 66.1598 63.3552H73.4367C74.7159 63.3552 75.7564 62.3586 75.7564 61.1353ZM75.7564 50.7866V47.6266C75.7564 46.4012 74.7159 45.4045 73.4367 45.4045H66.1598C64.8806 45.4045 63.8401 46.4012 63.8401 47.6266V50.7866C63.8401 52.012 64.8806 53.0087 66.1598 53.0087H73.4367C74.7159 53.0087 75.7564 52.012 75.7564 50.7866ZM61.8642 71.3266V68.1666C61.8642 66.9433 60.8237 65.9466 59.5445 65.9466H52.2676C50.9884 65.9466 49.9479 66.9433 49.9479 68.1666V71.3266C49.9479 72.552 50.9884 73.5486 52.2676 73.5486H59.5445C60.8237 73.5486 61.8642 72.552 61.8642 71.3266ZM61.8642 61.1353V57.9753C61.8642 56.7499 60.8237 55.7532 59.5445 55.7532H52.2676C50.9884 55.7532 49.9479 56.7499 49.9479 57.9753V61.1353C49.9479 62.3586 50.9884 63.3552 52.2676 63.3552H59.5445C60.8237 63.3552 61.8642 62.3586 61.8642 61.1353ZM61.8642 50.7866V47.6266C61.8642 46.4012 60.8237 45.4045 59.5445 45.4045H52.2676C50.9884 45.4045 49.9479 46.4012 49.9479 47.6266V50.7866C49.9479 52.012 50.9884 53.0087 52.2676 53.0087H59.5445C60.8237 53.0087 61.8642 52.012 61.8642 50.7866Z" fill="#4489D3"/>
<path d="M89.6793 10.1284V36.382C89.6793 39.8378 86.7462 42.6495 83.1362 42.6495H56.4581C52.8503 42.6495 49.915 39.8378 49.915 36.382V10.1284C49.915 6.67253 52.8503 3.86084 56.4581 3.86084H83.1362C86.7462 3.86084 89.6793 6.67253 89.6793 10.1284ZM87.7078 36.382V10.1284C87.7078 7.71327 85.6575 5.74929 83.1362 5.74929H56.4581C53.9368 5.74929 51.8865 7.71327 51.8865 10.1284V36.382C51.8865 38.7971 53.9368 40.7611 56.4581 40.7611H83.1362C85.6575 40.7611 87.7078 38.7971 87.7078 36.382Z" fill="black"/>
<path d="M89.6486 68.1666V71.3266C89.6486 72.552 88.6081 73.5487 87.3289 73.5487H80.052C78.7727 73.5487 77.7323 72.552 77.7323 71.3266V68.1666C77.7323 66.9433 78.7727 65.9467 80.052 65.9467H87.3289C88.6081 65.9467 89.6486 66.9433 89.6486 68.1666ZM87.6771 71.3266V68.1666C87.6771 67.9841 87.5194 67.8351 87.3289 67.8351H80.052C79.8592 67.8351 79.7037 67.9841 79.7037 68.1666V71.3266C79.7037 71.5113 79.8592 71.6602 80.052 71.6602H87.3289C87.5194 71.6602 87.6771 71.5113 87.6771 71.3266Z" fill="black"/>
<path d="M89.6486 57.9752V61.1352C89.6486 62.3585 88.6081 63.3552 87.3289 63.3552H80.052C78.7727 63.3552 77.7323 62.3585 77.7323 61.1352V57.9752C77.7323 56.7499 78.7727 55.7532 80.052 55.7532H87.3289C88.6081 55.7532 89.6486 56.7499 89.6486 57.9752ZM87.6771 61.1352V57.9752C87.6771 57.7906 87.5194 57.6416 87.3289 57.6416H80.052C79.8592 57.6416 79.7037 57.7906 79.7037 57.9752V61.1352C79.7037 61.3178 79.8592 61.4668 80.052 61.4668H87.3289C87.5194 61.4668 87.6771 61.3178 87.6771 61.1352Z" fill="black"/>
<path d="M89.6486 47.6266V50.7866C89.6486 52.012 88.6081 53.0087 87.3289 53.0087H80.052C78.7727 53.0087 77.7323 52.012 77.7323 50.7866V47.6266C77.7323 46.4012 78.7727 45.4045 80.052 45.4045H87.3289C88.6081 45.4045 89.6486 46.4012 89.6486 47.6266ZM87.6771 50.7866V47.6266C87.6771 47.4441 87.5194 47.293 87.3289 47.293H80.052C79.8592 47.293 79.7037 47.4441 79.7037 47.6266V50.7866C79.7037 50.9713 79.8592 51.1202 80.052 51.1202H87.3289C87.5194 51.1202 87.6771 50.9713 87.6771 50.7866Z" fill="black"/>
<path d="M87.7078 10.1284V36.382C87.7078 38.7971 85.6575 40.7611 83.1362 40.7611H56.4581C53.9368 40.7611 51.8865 38.7971 51.8865 36.382V10.1284C51.8865 7.71325 53.9368 5.74927 56.4581 5.74927H83.1362C85.6575 5.74927 87.7078 7.71325 87.7078 10.1284ZM85.9401 17.5521V11.0537C85.9401 9.21771 84.3783 7.72164 82.4616 7.72164H57.1349C55.2182 7.72164 53.6564 9.21771 53.6564 11.0537V17.5521C53.6564 19.3901 55.2182 20.8841 57.1349 20.8841H82.4616C84.3783 20.8841 85.9401 19.3901 85.9401 17.5521ZM85.9401 23.4923C85.9401 22.9719 85.4976 22.548 84.9543 22.548H80.9238C80.3784 22.548 79.9381 22.9719 79.9381 23.4923C79.9381 24.0147 80.3784 24.4365 80.9238 24.4365H84.9543C85.4976 24.4365 85.9401 24.0147 85.9401 23.4923ZM85.9401 27.8693C85.9401 27.3468 85.4976 26.925 84.9543 26.925H80.9238C80.3784 26.925 79.9381 27.3468 79.9381 27.8693C79.9381 28.3896 80.3784 28.8135 80.9238 28.8135H84.9543C85.4976 28.8135 85.9401 28.3896 85.9401 27.8693ZM85.9401 32.2442C85.9401 31.7217 85.4976 31.2999 84.9543 31.2999H80.9238C80.3784 31.2999 79.9381 31.7217 79.9381 32.2442C79.9381 32.7666 80.3784 33.1884 80.9238 33.1884H84.9543C85.4976 33.1884 85.9401 32.7666 85.9401 32.2442ZM85.9401 36.6191C85.9401 36.0987 85.4976 35.6748 84.9543 35.6748H80.9238C80.3784 35.6748 79.9381 36.0987 79.9381 36.6191C79.9381 37.1415 80.3784 37.5633 80.9238 37.5633H84.9543C85.4976 37.5633 85.9401 37.1415 85.9401 36.6191ZM59.6584 23.4923C59.6584 22.9719 59.2181 22.548 58.6727 22.548H54.6421C54.0989 22.548 53.6564 22.9719 53.6564 23.4923C53.6564 24.0147 54.0989 24.4365 54.6421 24.4365H58.6727C59.2181 24.4365 59.6584 24.0147 59.6584 23.4923ZM59.6584 27.8693C59.6584 27.3468 59.2181 26.925 58.6727 26.925H54.6421C54.0989 26.925 53.6564 27.3468 53.6564 27.8693C53.6564 28.3896 54.0989 28.8135 54.6421 28.8135H58.6727C59.2181 28.8135 59.6584 28.3896 59.6584 27.8693ZM59.6584 32.2442C59.6584 31.7217 59.2181 31.2999 58.6727 31.2999H54.6421C54.0989 31.2999 53.6564 31.7217 53.6564 32.2442C53.6564 32.7666 54.0989 33.1884 54.6421 33.1884H58.6727C59.2181 33.1884 59.6584 32.7666 59.6584 32.2442ZM59.6584 36.6191C59.6584 36.0987 59.2181 35.6748 58.6727 35.6748H54.6421C54.0989 35.6748 53.6564 36.0987 53.6564 36.6191C53.6564 37.1415 54.0989 37.5633 54.6421 37.5633H58.6727C59.2181 37.5633 59.6584 37.1415 59.6584 36.6191Z" fill="#6BCE95"/>
<path d="M87.6772 68.1666V71.3266C87.6772 71.5113 87.5194 71.6602 87.3289 71.6602H80.052C79.8592 71.6602 79.7037 71.5113 79.7037 71.3266V68.1666C79.7037 67.9841 79.8592 67.8351 80.052 67.8351H87.3289C87.5194 67.8351 87.6772 67.9841 87.6772 68.1666Z" fill="#6BCE95"/>
<path d="M87.6772 57.9753V61.1353C87.6772 61.3179 87.5194 61.4669 87.3289 61.4669H80.052C79.8592 61.4669 79.7037 61.3179 79.7037 61.1353V57.9753C79.7037 57.7907 79.8592 57.6417 80.052 57.6417H87.3289C87.5194 57.6417 87.6772 57.7907 87.6772 57.9753Z" fill="#6BCE95"/>
<path d="M87.6772 47.6266V50.7866C87.6772 50.9713 87.5194 51.1202 87.3289 51.1202H80.052C79.8592 51.1202 79.7037 50.9713 79.7037 50.7866V47.6266C79.7037 47.444 79.8592 47.293 80.052 47.293H87.3289C87.5194 47.293 87.6772 47.444 87.6772 47.6266Z" fill="#6BCE95"/>
<path d="M85.9401 11.0536V17.552C85.9401 19.39 84.3783 20.884 82.4616 20.884H57.135C55.2183 20.884 53.6564 19.39 53.6564 17.552V11.0536C53.6564 9.21763 55.2183 7.72156 57.135 7.72156H82.4616C84.3783 7.72156 85.9401 9.21763 85.9401 11.0536ZM83.9686 17.552V11.0536C83.9686 10.2584 83.2918 9.61 82.4616 9.61H57.135C56.3048 9.61 55.6279 10.2584 55.6279 11.0536V17.552C55.6279 18.3472 56.3048 18.9956 57.135 18.9956H82.4616C83.2918 18.9956 83.9686 18.3472 83.9686 17.552Z" fill="black"/>
<path d="M84.9544 22.5481C85.4976 22.5481 85.9401 22.9719 85.9401 23.4923C85.9401 24.0148 85.4976 24.4365 84.9544 24.4365H80.9239C80.3784 24.4365 79.9381 24.0148 79.9381 23.4923C79.9381 22.9719 80.3784 22.5481 80.9239 22.5481H84.9544Z" fill="black"/>
<path d="M84.9544 26.925C85.4976 26.925 85.9401 27.3468 85.9401 27.8693C85.9401 28.3896 85.4976 28.8135 84.9544 28.8135H80.9239C80.3784 28.8135 79.9381 28.3896 79.9381 27.8693C79.9381 27.3468 80.3784 26.925 80.9239 26.925H84.9544Z" fill="black"/>
<path d="M84.9544 31.2999C85.4976 31.2999 85.9401 31.7217 85.9401 32.2442C85.9401 32.7666 85.4976 33.1884 84.9544 33.1884H80.9239C80.3784 33.1884 79.9381 32.7666 79.9381 32.2442C79.9381 31.7217 80.3784 31.2999 80.9239 31.2999H84.9544Z" fill="black"/>
<path d="M84.9544 35.6748C85.4976 35.6748 85.9401 36.0987 85.9401 36.619C85.9401 37.1415 85.4976 37.5632 84.9544 37.5632H80.9239C80.3784 37.5632 79.9381 37.1415 79.9381 36.619C79.9381 36.0987 80.3784 35.6748 80.9239 35.6748H84.9544Z" fill="black"/>
<path d="M83.9686 11.0537V17.5521C83.9686 18.3473 83.2918 18.9957 82.4616 18.9957H57.135C56.3048 18.9957 55.6279 18.3473 55.6279 17.5521V11.0537C55.6279 10.2585 56.3048 9.61011 57.135 9.61011H82.4616C83.2918 9.61011 83.9686 10.2585 83.9686 11.0537Z" fill="#FFCC73"/>
<path d="M75.7565 68.1666V71.3266C75.7565 72.552 74.716 73.5487 73.4367 73.5487H66.1599C64.8806 73.5487 63.8401 72.552 63.8401 71.3266V68.1666C63.8401 66.9433 64.8806 65.9467 66.1599 65.9467H73.4367C74.716 65.9467 75.7565 66.9433 75.7565 68.1666ZM73.785 71.3266V68.1666C73.785 67.9841 73.6273 67.8351 73.4367 67.8351H66.1599C65.9671 67.8351 65.8116 67.9841 65.8116 68.1666V71.3266C65.8116 71.5113 65.9671 71.6602 66.1599 71.6602H73.4367C73.6273 71.6602 73.785 71.5113 73.785 71.3266Z" fill="black"/>
<path d="M75.7565 57.9752V61.1352C75.7565 62.3585 74.716 63.3552 73.4367 63.3552H66.1599C64.8806 63.3552 63.8401 62.3585 63.8401 61.1352V57.9752C63.8401 56.7499 64.8806 55.7532 66.1599 55.7532H73.4367C74.716 55.7532 75.7565 56.7499 75.7565 57.9752ZM73.785 61.1352V57.9752C73.785 57.7906 73.6273 57.6416 73.4367 57.6416H66.1599C65.9671 57.6416 65.8116 57.7906 65.8116 57.9752V61.1352C65.8116 61.3178 65.9671 61.4668 66.1599 61.4668H73.4367C73.6273 61.4668 73.785 61.3178 73.785 61.1352Z" fill="black"/>
<path d="M75.7565 47.6266V50.7866C75.7565 52.012 74.716 53.0087 73.4367 53.0087H66.1599C64.8806 53.0087 63.8401 52.012 63.8401 50.7866V47.6266C63.8401 46.4012 64.8806 45.4045 66.1599 45.4045H73.4367C74.716 45.4045 75.7565 46.4012 75.7565 47.6266ZM73.785 50.7866V47.6266C73.785 47.4441 73.6273 47.293 73.4367 47.293H66.1599C65.9671 47.293 65.8116 47.4441 65.8116 47.6266V50.7866C65.8116 50.9713 65.9671 51.1202 66.1599 51.1202H73.4367C73.6273 51.1202 73.785 50.9713 73.785 50.7866Z" fill="black"/>
<path d="M73.785 68.1666V71.3266C73.785 71.5113 73.6273 71.6602 73.4367 71.6602H66.1599C65.9671 71.6602 65.8116 71.5113 65.8116 71.3266V68.1666C65.8116 67.9841 65.9671 67.8351 66.1599 67.8351H73.4367C73.6273 67.8351 73.785 67.9841 73.785 68.1666Z" fill="#6BCE95"/>
<path d="M73.785 57.9753V61.1353C73.785 61.3179 73.6273 61.4669 73.4367 61.4669H66.1599C65.9671 61.4669 65.8116 61.3179 65.8116 61.1353V57.9753C65.8116 57.7907 65.9671 57.6417 66.1599 57.6417H73.4367C73.6273 57.6417 73.785 57.7907 73.785 57.9753Z" fill="#6BCE95"/>
<path d="M73.785 47.6266V50.7866C73.785 50.9713 73.6273 51.1202 73.4367 51.1202H66.1599C65.9671 51.1202 65.8116 50.9713 65.8116 50.7866V47.6266C65.8116 47.444 65.9671 47.293 66.1599 47.293H73.4367C73.6273 47.293 73.785 47.444 73.785 47.6266Z" fill="#6BCE95"/>
<path d="M61.8642 68.1666V71.3266C61.8642 72.552 60.8237 73.5487 59.5445 73.5487H52.2676C50.9884 73.5487 49.9479 72.552 49.9479 71.3266V68.1666C49.9479 66.9433 50.9884 65.9467 52.2676 65.9467H59.5445C60.8237 65.9467 61.8642 66.9433 61.8642 68.1666ZM59.8928 71.3266V68.1666C59.8928 67.9841 59.7372 67.8351 59.5445 67.8351H52.2676C52.0749 67.8351 51.9193 67.9841 51.9193 68.1666V71.3266C51.9193 71.5113 52.0749 71.6602 52.2676 71.6602H59.5445C59.7372 71.6602 59.8928 71.5113 59.8928 71.3266Z" fill="black"/>
<path d="M61.8642 57.9752V61.1352C61.8642 62.3585 60.8237 63.3552 59.5445 63.3552H52.2676C50.9884 63.3552 49.9479 62.3585 49.9479 61.1352V57.9752C49.9479 56.7499 50.9884 55.7532 52.2676 55.7532H59.5445C60.8237 55.7532 61.8642 56.7499 61.8642 57.9752ZM59.8928 61.1352V57.9752C59.8928 57.7906 59.7372 57.6416 59.5445 57.6416H52.2676C52.0749 57.6416 51.9193 57.7906 51.9193 57.9752V61.1352C51.9193 61.3178 52.0749 61.4668 52.2676 61.4668H59.5445C59.7372 61.4668 59.8928 61.3178 59.8928 61.1352Z" fill="black"/>
<path d="M61.8642 47.6266V50.7866C61.8642 52.012 60.8237 53.0087 59.5445 53.0087H52.2676C50.9884 53.0087 49.9479 52.012 49.9479 50.7866V47.6266C49.9479 46.4012 50.9884 45.4045 52.2676 45.4045H59.5445C60.8237 45.4045 61.8642 46.4012 61.8642 47.6266ZM59.8928 50.7866V47.6266C59.8928 47.4441 59.7372 47.293 59.5445 47.293H52.2676C52.0749 47.293 51.9193 47.4441 51.9193 47.6266V50.7866C51.9193 50.9713 52.0749 51.1202 52.2676 51.1202H59.5445C59.7372 51.1202 59.8928 50.9713 59.8928 50.7866Z" fill="black"/>
<path d="M59.8928 68.1666V71.3266C59.8928 71.5113 59.7373 71.6602 59.5445 71.6602H52.2676C52.0749 71.6602 51.9193 71.5113 51.9193 71.3266V68.1666C51.9193 67.9841 52.0749 67.8351 52.2676 67.8351H59.5445C59.7373 67.8351 59.8928 67.9841 59.8928 68.1666Z" fill="#6BCE95"/>
<path d="M59.8928 57.9753V61.1353C59.8928 61.3179 59.7373 61.4669 59.5445 61.4669H52.2676C52.0749 61.4669 51.9193 61.3179 51.9193 61.1353V57.9753C51.9193 57.7907 52.0749 57.6417 52.2676 57.6417H59.5445C59.7373 57.6417 59.8928 57.7907 59.8928 57.9753Z" fill="#6BCE95"/>
<path d="M59.8928 47.6266V50.7866C59.8928 50.9713 59.7373 51.1202 59.5445 51.1202H52.2676C52.0749 51.1202 51.9193 50.9713 51.9193 50.7866V47.6266C51.9193 47.444 52.0749 47.293 52.2676 47.293H59.5445C59.7373 47.293 59.8928 47.444 59.8928 47.6266Z" fill="#6BCE95"/>
<path d="M58.6727 22.5481C59.2181 22.5481 59.6584 22.9719 59.6584 23.4923C59.6584 24.0148 59.2181 24.4365 58.6727 24.4365H54.6422C54.0989 24.4365 53.6564 24.0148 53.6564 23.4923C53.6564 22.9719 54.0989 22.5481 54.6422 22.5481H58.6727Z" fill="black"/>
<path d="M58.6727 26.925C59.2181 26.925 59.6584 27.3468 59.6584 27.8693C59.6584 28.3896 59.2181 28.8135 58.6727 28.8135H54.6422C54.0989 28.8135 53.6564 28.3896 53.6564 27.8693C53.6564 27.3468 54.0989 26.925 54.6422 26.925H58.6727Z" fill="black"/>
<path d="M58.6727 31.2999C59.2181 31.2999 59.6584 31.7217 59.6584 32.2442C59.6584 32.7666 59.2181 33.1884 58.6727 33.1884H54.6422C54.0989 33.1884 53.6564 32.7666 53.6564 32.2442C53.6564 31.7217 54.0989 31.2999 54.6422 31.2999H58.6727Z" fill="black"/>
<path d="M58.6727 35.6748C59.2181 35.6748 59.6584 36.0987 59.6584 36.619C59.6584 37.1415 59.2181 37.5632 58.6727 37.5632H54.6422C54.0989 37.5632 53.6564 37.1415 53.6564 36.619C53.6564 36.0987 54.0989 35.6748 54.6422 35.6748H58.6727Z" fill="black"/>
<path d="M35.7928 10.1284V71.9141C35.7928 74.3292 33.7425 76.2932 31.2213 76.2932H20.0869C17.5656 76.2932 15.5153 74.3292 15.5153 71.9141V10.1284C15.5153 7.71325 17.5656 5.74927 20.0869 5.74927H31.2213C33.7425 5.74927 35.7928 7.71325 35.7928 10.1284Z" fill="#3B75A8"/>
</svg>
